<svg xmlns="http://www.w3.org/2000/svg" viewBox="0 0 500 500">
  <defs>
    <symbol id="petal">
      <path d="M250 250 Q 300 150 250 50 Q 200 150 250 250" fill="none" stroke="black" stroke-width="2" />
    </symbol>
  </defs>
  <g opacity="0.8">
    <!-- Center circles -->
    <circle cx="250" cy="250" r="20" fill="none" stroke="black" stroke-width="2"/>
    <circle cx="250" cy="250" r="40" fill="none" stroke="black" stroke-width="1"/>
    <circle cx="250" cy="250" r="150" fill="none" stroke="black" stroke-width="1"/>
    
    <!-- Rotating petals -->
    <use href="#petal" transform="rotate(0 250 250)" />
    <use href="#petal" transform="rotate(22.5 250 250)" />
    <use href="#petal" transform="rotate(45 250 250)" />
    <use href="#petal" transform="rotate(67.5 250 250)" />
    <use href="#petal" transform="rotate(90 250 250)" />
    <use href="#petal" transform="rotate(112.5 250 250)" />
    <use href="#petal" transform="rotate(135 250 250)" />
    <use href="#petal" transform="rotate(157.5 250 250)" />
    <use href="#petal" transform="rotate(180 250 250)" />
    <use href="#petal" transform="rotate(202.5 250 250)" />
    <use href="#petal" transform="rotate(225 250 250)" />
    <use href="#petal" transform="rotate(247.5 250 250)" />
    <use href="#petal" transform="rotate(270 250 250)" />
    <use href="#petal" transform="rotate(292.5 250 250)" />
    <use href="#petal" transform="rotate(315 250 250)" />
    <use href="#petal" transform="rotate(337.5 250 250)" />

    <!-- Outer decoration -->
    <path d="M 250 50 Q 270 50 265 90" fill="none" stroke="black" stroke-width="1" transform="rotate(0 250 250)" />
    <path d="M 250 50 Q 270 50 265 90" fill="none" stroke="black" stroke-width="1" transform="rotate(45 250 250)" />
    <path d="M 250 50 Q 270 50 265 90" fill="none" stroke="black" stroke-width="1" transform="rotate(90 250 250)" />
    <path d="M 250 50 Q 270 50 265 90" fill="none" stroke="black" stroke-width="1" transform="rotate(135 250 250)" />
    <path d="M 250 50 Q 270 50 265 90" fill="none" stroke="black" stroke-width="1" transform="rotate(180 250 250)" />
    <path d="M 250 50 Q 270 50 265 90" fill="none" stroke="black" stroke-width="1" transform="rotate(225 250 250)" />
    <path d="M 250 50 Q 270 50 265 90" fill="none" stroke="black" stroke-width="1" transform="rotate(270 250 250)" />
    <path d="M 250 50 Q 270 50 265 90" fill="none" stroke="black" stroke-width="1" transform="rotate(315 250 250)" />
  </g>
</svg>
